<?xml version="1.0" encoding="UTF-8" standalone="no"?>
<!DOCTYPE svg PUBLIC "-//W3C//DTD SVG 1.1//EN"
 "http://www.w3.org/Graphics/SVG/1.1/DTD/svg11.dtd">
<!-- Generated by graphviz version 2.40.1 (20161225.0304)
 -->
<!-- Title: workflow Pages: 1 -->
<svg width="512pt" height="170pt"
 viewBox="0.00 0.00 512.00 170.00" xmlns="http://www.w3.org/2000/svg" xmlns:xlink="http://www.w3.org/1999/xlink">
<g id="graph0" class="graph" transform="scale(1 1) rotate(0) translate(4 166)">
<title>workflow</title>
<polygon fill="#ffffff" stroke="transparent" points="-4,4 -4,-166 508,-166 508,4 -4,4"/>
<!-- place_f3636783cf01589e3cd05556c85594f27347bd3b -->
<g id="node1" class="node">
<title>place_f3636783cf01589e3cd05556c85594f27347bd3b</title>
<ellipse fill="#add8e6" stroke="#333333" cx="36" cy="-81" rx="36" ry="36"/>
<text text-anchor="middle" x="36" y="-78.8" font-family="Arial" font-size="9.00" fill="#000000">in_creation</text>
</g>
<!-- transition_ec97e5e932d8ab5fa7d264221eab30485bedf9bf -->
<g id="node5" class="node">
<title>transition_ec97e5e932d8ab5fa7d264221eab30485bedf9bf</title>
<polygon fill="none" stroke="#333333" points="180,-117 108,-117 108,-45 180,-45 180,-117"/>
<text text-anchor="middle" x="144" y="-78.8" font-family="Arial" font-size="9.00" fill="#000000">to_pending</text>
</g>
<!-- place_f3636783cf01589e3cd05556c85594f27347bd3b&#45;&gt;transition_ec97e5e932d8ab5fa7d264221eab30485bedf9bf -->
<g id="edge1" class="edge">
<title>place_f3636783cf01589e3cd05556c85594f27347bd3b&#45;&gt;transition_ec97e5e932d8ab5fa7d264221eab30485bedf9bf</title>
<path fill="none" stroke="#333333" d="M72.2629,-81C81.969,-81 92.5352,-81 102.5004,-81"/>
<polygon fill="#333333" stroke="#333333" points="102.649,-82.7501 107.649,-81 102.649,-79.2501 102.649,-82.7501"/>
</g>
<!-- place_95164f83ca949ff0ab56a9717097c849547f80a1 -->
<g id="node2" class="node">
<title>place_95164f83ca949ff0ab56a9717097c849547f80a1</title>
<ellipse fill="none" stroke="#333333" cx="252" cy="-81" rx="36" ry="36"/>
<text text-anchor="middle" x="252" y="-78.8" font-family="Arial" font-size="9.00" fill="#000000">on_pending</text>
</g>
<!-- transition_bc35b201040ae4fdf7a8af89d78b886a5f5d4ced -->
<g id="node6" class="node">
<title>transition_bc35b201040ae4fdf7a8af89d78b886a5f5d4ced</title>
<polygon fill="none" stroke="#333333" points="396,-162 324,-162 324,-90 396,-90 396,-162"/>
<text text-anchor="middle" x="360" y="-123.8" font-family="Arial" font-size="9.00" fill="#000000">to_accept</text>
</g>
<!-- place_95164f83ca949ff0ab56a9717097c849547f80a1&#45;&gt;transition_bc35b201040ae4fdf7a8af89d78b886a5f5d4ced -->
<g id="edge3" class="edge">
<title>place_95164f83ca949ff0ab56a9717097c849547f80a1&#45;&gt;transition_bc35b201040ae4fdf7a8af89d78b886a5f5d4ced</title>
<path fill="none" stroke="#333333" d="M285.2848,-94.8687C295.9141,-99.2975 307.8056,-104.2523 318.921,-108.8838"/>
<polygon fill="#333333" stroke="#333333" points="318.3429,-110.5387 323.6314,-110.8464 319.6891,-107.3079 318.3429,-110.5387"/>
</g>
<!-- transition_cfd5bb694260fabfe094a7bf6e386762799d05df -->
<g id="node7" class="node">
<title>transition_cfd5bb694260fabfe094a7bf6e386762799d05df</title>
<polygon fill="none" stroke="#333333" points="396,-72 324,-72 324,0 396,0 396,-72"/>
<text text-anchor="middle" x="360" y="-33.8" font-family="Arial" font-size="9.00" fill="#000000">to_reject</text>
</g>
<!-- place_95164f83ca949ff0ab56a9717097c849547f80a1&#45;&gt;transition_cfd5bb694260fabfe094a7bf6e386762799d05df -->
<g id="edge5" class="edge">
<title>place_95164f83ca949ff0ab56a9717097c849547f80a1&#45;&gt;transition_cfd5bb694260fabfe094a7bf6e386762799d05df</title>
<path fill="none" stroke="#333333" d="M285.2848,-67.1313C295.9141,-62.7025 307.8056,-57.7477 318.921,-53.1162"/>
<polygon fill="#333333" stroke="#333333" points="319.6891,-54.6921 323.6314,-51.1536 318.3429,-51.4613 319.6891,-54.6921"/>
</g>
<!-- place_1f087a5954f6249bb7245576c304a0520d4178c5 -->
<g id="node3" class="node">
<title>place_1f087a5954f6249bb7245576c304a0520d4178c5</title>
<ellipse fill="none" stroke="#333333" cx="468" cy="-36" rx="36" ry="36"/>
<text text-anchor="middle" x="468" y="-33.8" font-family="Arial" font-size="9.00" fill="#000000">rejected</text>
</g>
<!-- place_51c817ab85e3c10c1544cbe74ec1106357ad59f5 -->
<g id="node4" class="node">
<title>place_51c817ab85e3c10c1544cbe74ec1106357ad59f5</title>
<ellipse fill="none" stroke="#333333" cx="468" cy="-126" rx="36" ry="36"/>
<text text-anchor="middle" x="468" y="-123.8" font-family="Arial" font-size="9.00" fill="#000000">accepted</text>
</g>
<!-- transition_ec97e5e932d8ab5fa7d264221eab30485bedf9bf&#45;&gt;place_95164f83ca949ff0ab56a9717097c849547f80a1 -->
<g id="edge2" class="edge">
<title>transition_ec97e5e932d8ab5fa7d264221eab30485bedf9bf&#45;&gt;place_95164f83ca949ff0ab56a9717097c849547f80a1</title>
<path fill="none" stroke="#333333" d="M180.2629,-81C189.969,-81 200.5352,-81 210.5004,-81"/>
<polygon fill="#333333" stroke="#333333" points="210.649,-82.7501 215.649,-81 210.649,-79.2501 210.649,-82.7501"/>
</g>
<!-- transition_bc35b201040ae4fdf7a8af89d78b886a5f5d4ced&#45;&gt;place_51c817ab85e3c10c1544cbe74ec1106357ad59f5 -->
<g id="edge4" class="edge">
<title>transition_bc35b201040ae4fdf7a8af89d78b886a5f5d4ced&#45;&gt;place_51c817ab85e3c10c1544cbe74ec1106357ad59f5</title>
<path fill="none" stroke="#333333" d="M396.2629,-126C405.969,-126 416.5352,-126 426.5004,-126"/>
<polygon fill="#333333" stroke="#333333" points="426.649,-127.7501 431.649,-126 426.649,-124.2501 426.649,-127.7501"/>
</g>
<!-- transition_cfd5bb694260fabfe094a7bf6e386762799d05df&#45;&gt;place_1f087a5954f6249bb7245576c304a0520d4178c5 -->
<g id="edge6" class="edge">
<title>transition_cfd5bb694260fabfe094a7bf6e386762799d05df&#45;&gt;place_1f087a5954f6249bb7245576c304a0520d4178c5</title>
<path fill="none" stroke="#333333" d="M396.2629,-36C405.969,-36 416.5352,-36 426.5004,-36"/>
<polygon fill="#333333" stroke="#333333" points="426.649,-37.7501 431.649,-36 426.649,-34.2501 426.649,-37.7501"/>
</g>
</g>
</svg>
